<mxfile host="app.diagrams.net" agent="Mozilla/5.0 (Windows NT 10.0; Win64; x64) AppleWebKit/537.36 (KHTML, like Gecko) Chrome/126.0.0.0 Safari/537.36 Edg/126.0.0.0" version="24.8.6">
  <diagram name="第 1 页" id="J2Rgs34cH2gYBlN_kvZF">
    <mxGraphModel dx="1042" dy="569" grid="1" gridSize="10" guides="1" tooltips="1" connect="1" arrows="1" fold="1" page="1" pageScale="1" pageWidth="827" pageHeight="1169" math="0" shadow="0">
      <root>
        <mxCell id="0" />
        <mxCell id="1" parent="0" />
        <mxCell id="4MMp17TeAA0zZRWLuz8M-1" value="讲师" style="shape=umlActor;verticalLabelPosition=bottom;verticalAlign=top;html=1;outlineConnect=0;" parent="1" vertex="1">
          <mxGeometry x="210" y="440" width="30" height="60" as="geometry" />
        </mxCell>
        <mxCell id="4MMp17TeAA0zZRWLuz8M-2" value="知识点管理" style="ellipse;whiteSpace=wrap;html=1;" parent="1" vertex="1">
          <mxGeometry x="400" y="230" width="140" height="40" as="geometry" />
        </mxCell>
        <mxCell id="4MMp17TeAA0zZRWLuz8M-3" value="" style="endArrow=open;endFill=1;endSize=12;html=1;rounded=0;exitX=1;exitY=0.3333333333333333;exitDx=0;exitDy=0;exitPerimeter=0;entryX=0;entryY=0.5;entryDx=0;entryDy=0;" parent="1" source="4MMp17TeAA0zZRWLuz8M-1" target="4MMp17TeAA0zZRWLuz8M-2" edge="1">
          <mxGeometry width="160" relative="1" as="geometry">
            <mxPoint x="240" y="520" as="sourcePoint" />
            <mxPoint x="400" y="520" as="targetPoint" />
          </mxGeometry>
        </mxCell>
        <mxCell id="4MMp17TeAA0zZRWLuz8M-4" value="案例管理" style="ellipse;whiteSpace=wrap;html=1;" parent="1" vertex="1">
          <mxGeometry x="400" y="450" width="140" height="40" as="geometry" />
        </mxCell>
        <mxCell id="4MMp17TeAA0zZRWLuz8M-5" value="" style="endArrow=open;endFill=1;endSize=12;html=1;rounded=0;entryX=0;entryY=0.5;entryDx=0;entryDy=0;" parent="1" target="4MMp17TeAA0zZRWLuz8M-4" edge="1">
          <mxGeometry width="160" relative="1" as="geometry">
            <mxPoint x="290" y="460" as="sourcePoint" />
            <mxPoint x="440" y="380" as="targetPoint" />
          </mxGeometry>
        </mxCell>
        <mxCell id="4MMp17TeAA0zZRWLuz8M-6" value="试题管理" style="ellipse;whiteSpace=wrap;html=1;" parent="1" vertex="1">
          <mxGeometry x="400" y="320" width="140" height="40" as="geometry" />
        </mxCell>
        <mxCell id="4MMp17TeAA0zZRWLuz8M-7" value="课程管理" style="ellipse;whiteSpace=wrap;html=1;" parent="1" vertex="1">
          <mxGeometry x="410" y="520" width="140" height="40" as="geometry" />
        </mxCell>
        <mxCell id="4MMp17TeAA0zZRWLuz8M-8" value="学习任务管理" style="ellipse;whiteSpace=wrap;html=1;" parent="1" vertex="1">
          <mxGeometry x="410" y="620" width="140" height="40" as="geometry" />
        </mxCell>
        <mxCell id="4MMp17TeAA0zZRWLuz8M-9" value="" style="endArrow=open;endFill=1;endSize=12;html=1;rounded=0;entryX=0;entryY=0.5;entryDx=0;entryDy=0;" parent="1" target="4MMp17TeAA0zZRWLuz8M-6" edge="1">
          <mxGeometry width="160" relative="1" as="geometry">
            <mxPoint x="300" y="460" as="sourcePoint" />
            <mxPoint x="440" y="450" as="targetPoint" />
            <Array as="points">
              <mxPoint x="240" y="460" />
            </Array>
          </mxGeometry>
        </mxCell>
        <mxCell id="4MMp17TeAA0zZRWLuz8M-10" value="" style="endArrow=open;endFill=1;endSize=12;html=1;rounded=0;entryX=0;entryY=0.5;entryDx=0;entryDy=0;" parent="1" target="4MMp17TeAA0zZRWLuz8M-7" edge="1">
          <mxGeometry width="160" relative="1" as="geometry">
            <mxPoint x="240" y="460" as="sourcePoint" />
            <mxPoint x="430" y="550" as="targetPoint" />
          </mxGeometry>
        </mxCell>
        <mxCell id="4MMp17TeAA0zZRWLuz8M-11" value="" style="endArrow=open;endFill=1;endSize=12;html=1;rounded=0;entryX=-0.016;entryY=0.392;entryDx=0;entryDy=0;entryPerimeter=0;exitX=1;exitY=0.3333333333333333;exitDx=0;exitDy=0;exitPerimeter=0;" parent="1" source="4MMp17TeAA0zZRWLuz8M-1" target="4MMp17TeAA0zZRWLuz8M-8" edge="1">
          <mxGeometry width="160" relative="1" as="geometry">
            <mxPoint x="290" y="460" as="sourcePoint" />
            <mxPoint x="460" y="590" as="targetPoint" />
          </mxGeometry>
        </mxCell>
        <mxCell id="4MMp17TeAA0zZRWLuz8M-12" value="学员统计数据" style="ellipse;whiteSpace=wrap;html=1;" parent="1" vertex="1">
          <mxGeometry x="580" y="680" width="90" height="40" as="geometry" />
        </mxCell>
        <mxCell id="4MMp17TeAA0zZRWLuz8M-13" value="" style="endArrow=open;html=1;rounded=0;exitX=1;exitY=0.5;exitDx=0;exitDy=0;dashed=1;dashPattern=8 8;endFill=0;entryX=0;entryY=0.5;entryDx=0;entryDy=0;" parent="1" source="4MMp17TeAA0zZRWLuz8M-2" target="4MMp17TeAA0zZRWLuz8M-15" edge="1">
          <mxGeometry width="50" height="50" relative="1" as="geometry">
            <mxPoint x="656.3" y="300" as="sourcePoint" />
            <mxPoint x="646.3" y="170" as="targetPoint" />
            <Array as="points" />
          </mxGeometry>
        </mxCell>
        <mxCell id="4MMp17TeAA0zZRWLuz8M-14" value="&lt;span style=&quot;background-color: rgb(251, 251, 251);&quot;&gt;&amp;lt;&amp;lt;include&amp;gt;&amp;gt;&lt;/span&gt;" style="edgeLabel;html=1;align=center;verticalAlign=middle;resizable=0;points=[];rotation=0;" parent="4MMp17TeAA0zZRWLuz8M-13" vertex="1" connectable="0">
          <mxGeometry x="-0.1045" y="2" relative="1" as="geometry">
            <mxPoint x="5" y="-19" as="offset" />
          </mxGeometry>
        </mxCell>
        <mxCell id="4MMp17TeAA0zZRWLuz8M-15" value="分类" style="ellipse;whiteSpace=wrap;html=1;" parent="1" vertex="1">
          <mxGeometry x="616.3" y="120" width="63.7" height="40" as="geometry" />
        </mxCell>
        <mxCell id="4MMp17TeAA0zZRWLuz8M-16" value="参考话术" style="ellipse;whiteSpace=wrap;html=1;" parent="1" vertex="1">
          <mxGeometry x="647" y="160" width="83" height="40" as="geometry" />
        </mxCell>
        <mxCell id="4MMp17TeAA0zZRWLuz8M-17" value="客户原声" style="ellipse;whiteSpace=wrap;html=1;" parent="1" vertex="1">
          <mxGeometry x="660" y="210" width="80" height="40" as="geometry" />
        </mxCell>
        <mxCell id="4MMp17TeAA0zZRWLuz8M-18" value="" style="endArrow=open;html=1;rounded=0;dashed=1;dashPattern=8 8;endFill=0;entryX=0;entryY=0.5;entryDx=0;entryDy=0;" parent="1" target="4MMp17TeAA0zZRWLuz8M-16" edge="1">
          <mxGeometry width="50" height="50" relative="1" as="geometry">
            <mxPoint x="537" y="250" as="sourcePoint" />
            <mxPoint x="496.3" y="350" as="targetPoint" />
            <Array as="points" />
          </mxGeometry>
        </mxCell>
        <mxCell id="4MMp17TeAA0zZRWLuz8M-19" value="&lt;span style=&quot;background-color: rgb(251, 251, 251);&quot;&gt;&amp;lt;&amp;lt;include&amp;gt;&amp;gt;&lt;/span&gt;" style="edgeLabel;html=1;align=center;verticalAlign=middle;resizable=0;points=[];" parent="4MMp17TeAA0zZRWLuz8M-18" vertex="1" connectable="0">
          <mxGeometry x="-0.1045" y="2" relative="1" as="geometry">
            <mxPoint x="10" as="offset" />
          </mxGeometry>
        </mxCell>
        <mxCell id="4MMp17TeAA0zZRWLuz8M-20" value="" style="endArrow=open;html=1;rounded=0;dashed=1;dashPattern=8 8;endFill=0;entryX=0;entryY=0.5;entryDx=0;entryDy=0;" parent="1" target="4MMp17TeAA0zZRWLuz8M-17" edge="1">
          <mxGeometry width="50" height="50" relative="1" as="geometry">
            <mxPoint x="537" y="250" as="sourcePoint" />
            <mxPoint x="656.3" y="230" as="targetPoint" />
            <Array as="points" />
          </mxGeometry>
        </mxCell>
        <mxCell id="4MMp17TeAA0zZRWLuz8M-21" value="&lt;span style=&quot;background-color: rgb(251, 251, 251);&quot;&gt;&amp;lt;&amp;lt;include&amp;gt;&amp;gt;&lt;/span&gt;" style="edgeLabel;html=1;align=center;verticalAlign=middle;resizable=0;points=[];" parent="4MMp17TeAA0zZRWLuz8M-20" vertex="1" connectable="0">
          <mxGeometry x="-0.1045" y="2" relative="1" as="geometry">
            <mxPoint as="offset" />
          </mxGeometry>
        </mxCell>
        <mxCell id="4MMp17TeAA0zZRWLuz8M-22" value="案例库" style="ellipse;whiteSpace=wrap;html=1;" parent="1" vertex="1">
          <mxGeometry x="638.5" y="330" width="94.3" height="40" as="geometry" />
        </mxCell>
        <mxCell id="4MMp17TeAA0zZRWLuz8M-23" value="会话配置" style="ellipse;whiteSpace=wrap;html=1;" parent="1" vertex="1">
          <mxGeometry x="710" y="370" width="80" height="40" as="geometry" />
        </mxCell>
        <mxCell id="4MMp17TeAA0zZRWLuz8M-24" value="" style="endArrow=open;html=1;rounded=0;dashed=1;dashPattern=8 8;endFill=0;exitX=1;exitY=0.5;exitDx=0;exitDy=0;entryX=0;entryY=0.5;entryDx=0;entryDy=0;" parent="1" source="4MMp17TeAA0zZRWLuz8M-2" target="4MMp17TeAA0zZRWLuz8M-26" edge="1">
          <mxGeometry width="50" height="50" relative="1" as="geometry">
            <mxPoint x="566.3" y="240" as="sourcePoint" />
            <mxPoint x="620" y="290" as="targetPoint" />
            <Array as="points" />
          </mxGeometry>
        </mxCell>
        <mxCell id="4MMp17TeAA0zZRWLuz8M-25" value="&lt;span style=&quot;background-color: rgb(251, 251, 251);&quot;&gt;&amp;lt;&amp;lt;include&amp;gt;&amp;gt;&lt;/span&gt;" style="edgeLabel;html=1;align=center;verticalAlign=middle;resizable=0;points=[];" parent="4MMp17TeAA0zZRWLuz8M-24" vertex="1" connectable="0">
          <mxGeometry x="-0.1045" y="2" relative="1" as="geometry">
            <mxPoint as="offset" />
          </mxGeometry>
        </mxCell>
        <mxCell id="4MMp17TeAA0zZRWLuz8M-26" value="批量上传" style="ellipse;whiteSpace=wrap;html=1;" parent="1" vertex="1">
          <mxGeometry x="647" y="260" width="77.3" height="40" as="geometry" />
        </mxCell>
        <mxCell id="4MMp17TeAA0zZRWLuz8M-27" value="情景模拟" style="ellipse;whiteSpace=wrap;html=1;" parent="1" vertex="1">
          <mxGeometry x="730" y="440" width="90" height="40" as="geometry" />
        </mxCell>
        <mxCell id="4MMp17TeAA0zZRWLuz8M-28" value="" style="endArrow=open;html=1;rounded=0;dashed=1;dashPattern=8 8;endFill=0;exitX=1;exitY=0.5;exitDx=0;exitDy=0;entryX=0;entryY=0.5;entryDx=0;entryDy=0;" parent="1" source="4MMp17TeAA0zZRWLuz8M-4" target="4MMp17TeAA0zZRWLuz8M-22" edge="1">
          <mxGeometry width="50" height="50" relative="1" as="geometry">
            <mxPoint x="550" y="290" as="sourcePoint" />
            <mxPoint x="620" y="350" as="targetPoint" />
            <Array as="points" />
          </mxGeometry>
        </mxCell>
        <mxCell id="4MMp17TeAA0zZRWLuz8M-29" value="&lt;span style=&quot;background-color: rgb(251, 251, 251);&quot;&gt;&amp;lt;&amp;lt;include&amp;gt;&amp;gt;&lt;/span&gt;" style="edgeLabel;html=1;align=center;verticalAlign=middle;resizable=0;points=[];" parent="4MMp17TeAA0zZRWLuz8M-28" vertex="1" connectable="0">
          <mxGeometry x="-0.1045" y="2" relative="1" as="geometry">
            <mxPoint as="offset" />
          </mxGeometry>
        </mxCell>
        <mxCell id="4MMp17TeAA0zZRWLuz8M-30" value="" style="endArrow=open;html=1;rounded=0;dashed=1;dashPattern=8 8;endFill=0;entryX=0;entryY=0.5;entryDx=0;entryDy=0;" parent="1" target="4MMp17TeAA0zZRWLuz8M-23" edge="1">
          <mxGeometry width="50" height="50" relative="1" as="geometry">
            <mxPoint x="550" y="470" as="sourcePoint" />
            <mxPoint x="600" y="440" as="targetPoint" />
            <Array as="points" />
          </mxGeometry>
        </mxCell>
        <mxCell id="4MMp17TeAA0zZRWLuz8M-31" value="&lt;span style=&quot;background-color: rgb(251, 251, 251);&quot;&gt;&amp;lt;&amp;lt;include&amp;gt;&amp;gt;&lt;/span&gt;" style="edgeLabel;html=1;align=center;verticalAlign=middle;resizable=0;points=[];" parent="4MMp17TeAA0zZRWLuz8M-30" vertex="1" connectable="0">
          <mxGeometry x="-0.1045" y="2" relative="1" as="geometry">
            <mxPoint as="offset" />
          </mxGeometry>
        </mxCell>
        <mxCell id="4MMp17TeAA0zZRWLuz8M-32" value="" style="endArrow=open;html=1;rounded=0;dashed=1;dashPattern=8 8;endFill=0;entryX=0;entryY=0.5;entryDx=0;entryDy=0;exitX=1;exitY=0.5;exitDx=0;exitDy=0;" parent="1" source="4MMp17TeAA0zZRWLuz8M-4" target="4MMp17TeAA0zZRWLuz8M-27" edge="1">
          <mxGeometry width="50" height="50" relative="1" as="geometry">
            <mxPoint x="550" y="430" as="sourcePoint" />
            <mxPoint x="620" y="460" as="targetPoint" />
            <Array as="points" />
          </mxGeometry>
        </mxCell>
        <mxCell id="4MMp17TeAA0zZRWLuz8M-33" value="&lt;span style=&quot;background-color: rgb(251, 251, 251);&quot;&gt;&amp;lt;&amp;lt;include&amp;gt;&amp;gt;&lt;/span&gt;" style="edgeLabel;html=1;align=center;verticalAlign=middle;resizable=0;points=[];" parent="4MMp17TeAA0zZRWLuz8M-32" vertex="1" connectable="0">
          <mxGeometry x="-0.1045" y="2" relative="1" as="geometry">
            <mxPoint as="offset" />
          </mxGeometry>
        </mxCell>
        <mxCell id="4MMp17TeAA0zZRWLuz8M-34" value="" style="endArrow=open;html=1;rounded=0;dashed=1;dashPattern=8 8;endFill=0;entryX=0;entryY=0.5;entryDx=0;entryDy=0;exitX=1;exitY=0.5;exitDx=0;exitDy=0;" parent="1" source="4MMp17TeAA0zZRWLuz8M-8" target="4MMp17TeAA0zZRWLuz8M-12" edge="1">
          <mxGeometry width="50" height="50" relative="1" as="geometry">
            <mxPoint x="540" y="400" as="sourcePoint" />
            <mxPoint x="650" y="470" as="targetPoint" />
            <Array as="points" />
          </mxGeometry>
        </mxCell>
        <mxCell id="4MMp17TeAA0zZRWLuz8M-35" value="&lt;span style=&quot;background-color: rgb(251, 251, 251);&quot;&gt;&amp;lt;&amp;lt;include&amp;gt;&amp;gt;&lt;/span&gt;" style="edgeLabel;html=1;align=center;verticalAlign=middle;resizable=0;points=[];" parent="4MMp17TeAA0zZRWLuz8M-34" vertex="1" connectable="0">
          <mxGeometry x="-0.1045" y="2" relative="1" as="geometry">
            <mxPoint as="offset" />
          </mxGeometry>
        </mxCell>
        <mxCell id="4MMp17TeAA0zZRWLuz8M-36" value="热线" style="ellipse;whiteSpace=wrap;html=1;" parent="1" vertex="1">
          <mxGeometry x="700" y="560" width="80" height="40" as="geometry" />
        </mxCell>
        <mxCell id="4MMp17TeAA0zZRWLuz8M-37" value="在线" style="ellipse;whiteSpace=wrap;html=1;" parent="1" vertex="1">
          <mxGeometry x="730" y="500" width="82.15" height="40" as="geometry" />
        </mxCell>
        <mxCell id="4MMp17TeAA0zZRWLuz8M-38" value="" style="endArrow=open;html=1;rounded=0;dashed=1;dashPattern=8 8;endFill=0;entryX=0;entryY=0.5;entryDx=0;entryDy=0;exitX=1;exitY=0.5;exitDx=0;exitDy=0;" parent="1" source="4MMp17TeAA0zZRWLuz8M-4" target="4MMp17TeAA0zZRWLuz8M-37" edge="1">
          <mxGeometry width="50" height="50" relative="1" as="geometry">
            <mxPoint x="530" y="410" as="sourcePoint" />
            <mxPoint x="510" y="440" as="targetPoint" />
            <Array as="points" />
          </mxGeometry>
        </mxCell>
        <mxCell id="4MMp17TeAA0zZRWLuz8M-39" value="&lt;span style=&quot;background-color: rgb(251, 251, 251);&quot;&gt;&amp;lt;&amp;lt;include&amp;gt;&amp;gt;&lt;/span&gt;" style="edgeLabel;html=1;align=center;verticalAlign=middle;resizable=0;points=[];" parent="4MMp17TeAA0zZRWLuz8M-38" vertex="1" connectable="0">
          <mxGeometry x="-0.1045" y="2" relative="1" as="geometry">
            <mxPoint as="offset" />
          </mxGeometry>
        </mxCell>
        <mxCell id="4MMp17TeAA0zZRWLuz8M-40" value="" style="endArrow=open;html=1;rounded=0;dashed=1;dashPattern=8 8;endFill=0;exitX=1;exitY=0.5;exitDx=0;exitDy=0;entryX=0;entryY=0.5;entryDx=0;entryDy=0;" parent="1" source="4MMp17TeAA0zZRWLuz8M-4" target="4MMp17TeAA0zZRWLuz8M-36" edge="1">
          <mxGeometry width="50" height="50" relative="1" as="geometry">
            <mxPoint x="533" y="470" as="sourcePoint" />
            <mxPoint x="620" y="560" as="targetPoint" />
            <Array as="points" />
          </mxGeometry>
        </mxCell>
        <mxCell id="4MMp17TeAA0zZRWLuz8M-41" value="&lt;span style=&quot;background-color: rgb(251, 251, 251);&quot;&gt;&amp;lt;&amp;lt;include&amp;gt;&amp;gt;&lt;/span&gt;" style="edgeLabel;html=1;align=center;verticalAlign=middle;resizable=0;points=[];" parent="4MMp17TeAA0zZRWLuz8M-40" vertex="1" connectable="0">
          <mxGeometry x="-0.1045" y="2" relative="1" as="geometry">
            <mxPoint as="offset" />
          </mxGeometry>
        </mxCell>
        <mxCell id="4MMp17TeAA0zZRWLuz8M-44" value="工单操作" style="ellipse;whiteSpace=wrap;html=1;" parent="1" vertex="1">
          <mxGeometry x="580" y="560" width="80" height="40" as="geometry" />
        </mxCell>
        <mxCell id="4MMp17TeAA0zZRWLuz8M-45" value="" style="endArrow=open;html=1;rounded=0;exitX=1;exitY=0.5;exitDx=0;exitDy=0;dashed=1;dashPattern=8 8;endFill=0;entryX=0.5;entryY=0;entryDx=0;entryDy=0;" parent="1" source="4MMp17TeAA0zZRWLuz8M-4" target="4MMp17TeAA0zZRWLuz8M-44" edge="1">
          <mxGeometry width="50" height="50" relative="1" as="geometry">
            <mxPoint x="330" y="600" as="sourcePoint" />
            <mxPoint x="670" y="570" as="targetPoint" />
            <Array as="points" />
          </mxGeometry>
        </mxCell>
        <mxCell id="4MMp17TeAA0zZRWLuz8M-46" value="&lt;span style=&quot;background-color: rgb(251, 251, 251);&quot;&gt;&amp;lt;&amp;lt;include&amp;gt;&amp;gt;&lt;/span&gt;" style="edgeLabel;html=1;align=center;verticalAlign=middle;resizable=0;points=[];" parent="4MMp17TeAA0zZRWLuz8M-45" vertex="1" connectable="0">
          <mxGeometry x="-0.1045" y="2" relative="1" as="geometry">
            <mxPoint as="offset" />
          </mxGeometry>
        </mxCell>
        <mxCell id="4MMp17TeAA0zZRWLuz8M-47" value="错误反馈" style="ellipse;whiteSpace=wrap;html=1;" parent="1" vertex="1">
          <mxGeometry x="400" y="380" width="140" height="40" as="geometry" />
        </mxCell>
        <mxCell id="4MMp17TeAA0zZRWLuz8M-48" value="" style="endArrow=open;endFill=1;endSize=12;html=1;rounded=0;entryX=0;entryY=0.5;entryDx=0;entryDy=0;" parent="1" target="4MMp17TeAA0zZRWLuz8M-47" edge="1">
          <mxGeometry width="160" relative="1" as="geometry">
            <mxPoint x="240" y="460" as="sourcePoint" />
            <mxPoint x="410" y="350" as="targetPoint" />
            <Array as="points" />
          </mxGeometry>
        </mxCell>
        <mxCell id="4MMp17TeAA0zZRWLuz8M-49" value="培训管理系统" style="shape=umlFrame;whiteSpace=wrap;html=1;pointerEvents=0;" parent="1" vertex="1">
          <mxGeometry x="298.15" y="100" width="551.85" height="670" as="geometry" />
        </mxCell>
        <mxCell id="4MMp17TeAA0zZRWLuz8M-50" value="学习任务配置" style="ellipse;whiteSpace=wrap;html=1;" parent="1" vertex="1">
          <mxGeometry x="600" y="620" width="90" height="40" as="geometry" />
        </mxCell>
        <mxCell id="4MMp17TeAA0zZRWLuz8M-51" value="" style="endArrow=open;html=1;rounded=0;dashed=1;dashPattern=8 8;endFill=0;entryX=0;entryY=0.5;entryDx=0;entryDy=0;exitX=1;exitY=0.5;exitDx=0;exitDy=0;" parent="1" source="4MMp17TeAA0zZRWLuz8M-8" target="4MMp17TeAA0zZRWLuz8M-50" edge="1">
          <mxGeometry width="50" height="50" relative="1" as="geometry">
            <mxPoint x="560" y="650" as="sourcePoint" />
            <mxPoint x="590" y="710" as="targetPoint" />
            <Array as="points" />
          </mxGeometry>
        </mxCell>
        <mxCell id="4MMp17TeAA0zZRWLuz8M-52" value="&lt;span style=&quot;background-color: rgb(251, 251, 251);&quot;&gt;&amp;lt;&amp;lt;include&amp;gt;&amp;gt;&lt;/span&gt;" style="edgeLabel;html=1;align=center;verticalAlign=middle;resizable=0;points=[];" parent="4MMp17TeAA0zZRWLuz8M-51" vertex="1" connectable="0">
          <mxGeometry x="-0.1045" y="2" relative="1" as="geometry">
            <mxPoint as="offset" />
          </mxGeometry>
        </mxCell>
      </root>
    </mxGraphModel>
  </diagram>
</mxfile>
